<svg xmlns="http://www.w3.org/2000/svg" viewBox="0 0 99.32 34.19"><defs><style>.cls-1{fill:#fff;}.cls-2{fill:#e3007f;}</style></defs><g id="レイヤー_2" data-name="レイヤー 2"><g id="OL"><path class="cls-1" d="M1.46,0h8A15.55,15.55,0,0,0,5.37,5.3a15.72,15.72,0,0,0-1.29,6.57,15.9,15.9,0,0,0,1.27,6.58,16,16,0,0,0,4.09,5.3h-8Z"/><rect class="cls-1" x="-11.53" y="11.54" width="23.74" height="0.66" transform="matrix(0, -1, 1, 0, -11.53, 12.19)"/><path class="cls-1" d="M97.86,23.75h-8A15.46,15.46,0,0,0,94,18.45a15.72,15.72,0,0,0,1.29-6.57A15.74,15.74,0,0,0,94,5.3,15.83,15.83,0,0,0,89.88,0h8Z"/><rect class="cls-1" x="87.11" y="11.55" width="23.74" height="0.66" transform="translate(86.98 110.84) rotate(-89.93)"/><path class="cls-1" d="M16.21,11.19c.07-.1,0-.36-.12-.29-.5.29-1,.55-1.46.79V8.06h2.93c.24,0,.31-.07.31-.23s-.19-.39-.5-.7c-.74-.66-1-.86-1.19-.86s-.45.19-1.22,1.24h-.33v-4c.53-.17.77-.38.77-.64,0-.41-.65-.55-3-.77a20.89,20.89,0,0,1,.12,2.81V7.51H11a6.34,6.34,0,0,1-1.51-.19l.26.88A6.11,6.11,0,0,1,11,8.06h1.52v4.63c-.55.23-1.1.42-1.65.61a16.09,16.09,0,0,1-1.67.46c.86,2.38,1,2.74,1.29,2.74s.43-.29.47-.88c.49-.31,1-.66,1.44-1l2.51-2.12C15.32,12.08,15.77,11.65,16.21,11.19Z"/><path class="cls-1" d="M13.79,14.88V20.7c0,.31,0,.36-.34.36-.71,0-1.52,0-2.5-.12-.12,0-.12.29,0,.31,1.67.5,2,.81,2.07,1.81.05.36.14.46.48.46a2.61,2.61,0,0,0,1.93-.64A2.52,2.52,0,0,0,16,21.11c0-1.14,0-2,0-5.36V13.06Z"/><path class="cls-1" d="M47.51,13.22c-1.63,4-4.61,6.32-8.07,6.32-2.56,0-4-1.42-4-4a40.71,40.71,0,0,1,1-6.91A16.67,16.67,0,0,0,37.07,5a3.1,3.1,0,0,0-2.93-3.2,1.8,1.8,0,0,0-.91.24s0,.07,0,.1c1.07.38,1.45,1,1.45,2.43a41.54,41.54,0,0,1-.29,4.46,62.21,62.21,0,0,0-.46,6.25c0,4.12,1.86,6.32,5.34,6.32,4.27,0,7.56-3.28,8.35-8.38C47.62,13.15,47.55,13.13,47.51,13.22Z"/><path class="cls-1" d="M79,20.43c0,.26-.08.33-.41.33-.91,0-2.67-.09-3.79-.21-.12,0-.12.33,0,.35,1.83.46,2.76.79,3,1.68.16.54.23.74.88.74a2.64,2.64,0,0,0,2.19-.84,2.49,2.49,0,0,0,.46-1.59c0-.91-.07-1.41-.07-2.87V13.41L79,13.22Z"/><path class="cls-2" d="M68.13,11.82c0-5-3.9-8.68-9.29-8.69-.25,0-.5,0-.74,0l.73.78c4.14,0,7,3.13,7,7.66a8.14,8.14,0,0,1-3.51,6.94,12.27,12.27,0,0,1-4.94,2.12.09.09,0,1,0,0,.17c.36,0,.67,0,.93,0C64,20.45,68.13,17,68.13,11.82Z"/><path class="cls-2" d="M59.52,9.29A7.43,7.43,0,0,0,58,4.61h0l-.69-.74A9.54,9.54,0,0,0,49,13.12c0,1.83.57,3.29,1.48,3.62s1,.41,1.14,1.05.57,1.05,1.26,1.05a4.79,4.79,0,0,0,2.84-1.23A11.27,11.27,0,0,0,59.52,9.29ZM55.82,12l0,3.63-1.71-2.1L52.36,16.2,52.62,13l-2-.3,1.84-2L51.79,8.4l1.93.48L55.8,6l0,3.11,2.45,1Z"/><path class="cls-1" d="M29.26,2.49c.68,0,1-.13,1.08-.47s-.55-.9-2.62-2a24.13,24.13,0,0,1-.82,2.56c-.38,1-.84,2.07-1.37,3.14A15.57,15.57,0,0,0,29.26,2.49Z"/><path class="cls-1" d="M31.94,20.13c-1-1-1.29-1.13-1.5-1.13S30,19.19,29,20.58H27v-4h4.56c.24,0,.31-.07.31-.24s-.17-.38-.52-.69c-.89-.81-1.17-1-1.39-1s-.45.19-1.33,1.36H27V11.9H31.5c.24,0,.31-.07.31-.23s-.19-.39-.53-.7c-.93-.86-1.21-1-1.43-1s-.45.19-1.33,1.4H27V8.12H24.92v3.23H22.37v.54h2.54v4.15H22.36v.55h2.55v4H21.68l0-13.91H31.84c.26,0,.35-.07.35-.24s-.11-.42-.54-.76c-1.08-.88-1.29-1-1.53-1s-.38.14-1.43,1.43h-6.8a21.09,21.09,0,0,0,1.48-3.36c.79-.19,1-.31,1-.54,0-.43-.43-.6-3.12-1.27a17.64,17.64,0,0,1-.67,3.5,27.18,27.18,0,0,1-3.4,7.49c-.07.09.19.31.29.24a22,22,0,0,0,2.22-2.5v.45c0,7.85-.2,9.9-.2,11.85,0,.57.23.84,1,.84.88,0,1.26-.24,1.26-.95v-.74H32.23c.23,0,.31-.07.31-.24S32.35,20.53,31.94,20.13Z"/><path class="cls-1" d="M90.77,11.81c-1.31-1.26-1.55-1.47-1.77-1.49s-.47.15-2,1.77L72.23,10.85a16.29,16.29,0,0,1-2.51-.4l.19.91c.91,0,1.61,0,2.3,0L91.2,13c.23,0,.31-.05.32-.21S91.37,12.38,90.77,11.81Z"/><path class="cls-1" d="M81.25,8.49c.62-.26.83-.45.83-.69s0-.19-.14-.26A19.23,19.23,0,0,0,86.88,4c1.15-.24,1.22-.31,1.22-.6s-.12-.31-.64-.81c-1.1-1-1.34-1.12-1.58-1.12s-.43.12-1.43,1.09H74a10.64,10.64,0,0,1-2-.19l.26.93a8.88,8.88,0,0,1,1.79-.19h10.4a15.2,15.2,0,0,1-3.37,4.25c-.47-.1-1.17-.22-2.19-.39A15.05,15.05,0,0,1,79,8.73v1.4l2.29.19Z"/><path class="cls-1" d="M18.91,32a1.76,1.76,0,1,1-1.76-1.77A1.76,1.76,0,0,1,18.91,32Zm-3.35,0a1.59,1.59,0,1,0,1.59-1.6A1.58,1.58,0,0,0,15.56,32Zm2.13-.43a.5.5,0,0,0-.48-.43c-.33,0-.59.3-.59.85s.27.85.59.85a.5.5,0,0,0,.51-.44l.3.09a.78.78,0,0,1-.81.62c-.54,0-.93-.42-.93-1.11s.4-1.12.93-1.12a.79.79,0,0,1,.8.62Z"/><path class="cls-1" d="M23.75,31.81s0,0,0,0H22.33v1.82a.34.34,0,0,1-.14.33,1.34,1.34,0,0,1-.59.07c-.09,0-.1,0-.12-.09a.58.58,0,0,0-.09-.21,4,4,0,0,0,.45,0c.16,0,.21-.05.21-.19V31.84h-.57c0,1.28-.35,1.81-1.25,2.25l-.07,0s0,0-.08-.07a.37.37,0,0,0-.15-.13c.92-.39,1.25-.85,1.26-2.08h-1.4s0,0,0,0v-.2s0,0,0,0h1.79v-.66H20.23s0,0,0,0v-.2s0,0,0,0h1.35v-.12a3.82,3.82,0,0,0,0-.58,1.35,1.35,0,0,1,.31,0s.05,0,.05,0a.16.16,0,0,1,0,.09,1.43,1.43,0,0,0,0,.41v.14h1.42s0,0,0,0v.2s0,0,0,0H21.86v.66h1.85s0,0,0,0Zm-3.1.55a.27.27,0,0,0-.07.12,2.57,2.57,0,0,1-.5.76s0,.06-.06.06l-.07,0a.47.47,0,0,0-.17-.09,2.12,2.12,0,0,0,.5-.68,1.27,1.27,0,0,0,.12-.34l.25.09a.06.06,0,0,1,0,.05A.09.09,0,0,1,20.65,32.36Zm2.33-.2s.05,0,.06,0a3.39,3.39,0,0,0,.69,1,.75.75,0,0,0-.17.14l-.06,0s0,0-.06-.06a4.17,4.17,0,0,1-.64-1s0,0,.05-.07Z"/><path class="cls-1" d="M26,31.46s0,0,0,0h-.5v1.28A4.39,4.39,0,0,0,26,32.5s0,.12,0,.19,0,.09-.08.13a9.19,9.19,0,0,1-1,.46l-.16.08a.09.09,0,0,1-.06,0,.05.05,0,0,1-.05,0,1.17,1.17,0,0,1-.1-.26A2.18,2.18,0,0,0,25,33l.24-.09V31.49h-.6s0,0,0,0v-.19s0,0,0,0h.6V30.7a5,5,0,0,0,0-.64l.3,0a0,0,0,0,1,.05,0,.31.31,0,0,1,0,.08,1.79,1.79,0,0,0,0,.48v.55H26s0,0,0,0Zm2-.11c.05,0,.08,0,.1,0h.05s.07,0,.14.09.08.09.08.11a.09.09,0,0,1,0,.07.33.33,0,0,0-.07.16,3.79,3.79,0,0,1-.64,1.34,3.38,3.38,0,0,0,1,.78.43.43,0,0,0-.13.19s0,.07-.05.07l-.07,0a3.8,3.8,0,0,1-1-.8,4.12,4.12,0,0,1-1,.81l-.06,0s0,0-.07-.06a.4.4,0,0,0-.15-.14,3.55,3.55,0,0,0,1.15-.85,3.6,3.6,0,0,1-.56-1.49h-.19a4.76,4.76,0,0,1-.15,1.18,3.43,3.43,0,0,1-.68,1.31s0,.05-.06.05l-.06-.05a.88.88,0,0,0-.17-.12,2.91,2.91,0,0,0,.71-1.28,5.6,5.6,0,0,0,.14-1.42c0-.7,0-1,0-1s0,0,0,0h2.24s0,0,0,0v.19s0,0,0,0h-2v.88Zm-1,.24a3.51,3.51,0,0,0,.49,1.29,3.42,3.42,0,0,0,.56-1.29Z"/><path class="cls-1" d="M30.46,30.86a6.58,6.58,0,0,0-.87.05c-.05,0-.06,0-.07-.05a3.06,3.06,0,0,1-.05-.32c.28,0,.55,0,1,0h1.92a1.13,1.13,0,0,0,.35,0l.07,0,.07,0a1.54,1.54,0,0,1,.17.19.09.09,0,0,1,0,.13.29.29,0,0,0-.11.11,3.8,3.8,0,0,1-.88.92.11.11,0,0,1-.12,0,.59.59,0,0,0-.24-.11,3,3,0,0,0,.94-.92Zm.3,1.92A2.59,2.59,0,0,0,31,31.64a1.48,1.48,0,0,0,0-.38,1.79,1.79,0,0,1,.37.06c.07,0,.07.08,0,.14a.44.44,0,0,0,0,.22,2.81,2.81,0,0,1-.26,1.23,2.39,2.39,0,0,1-.87.92.11.11,0,0,1-.14,0,.76.76,0,0,0-.25-.15A2,2,0,0,0,30.76,32.78Z"/><path class="cls-1" d="M35.39,31.22a4,4,0,0,0,0-.5,2.1,2.1,0,0,0,0-.5,2,2,0,0,1,.37.07c.07,0,.08.07,0,.14a1,1,0,0,0-.06.31c0,.16,0,.3,0,.48h1.36c.07,0,.08,0,.08.05s0,.26,0,.43A8.64,8.64,0,0,1,37,33.15c-.09.35-.2.48-.43.55a1.56,1.56,0,0,1-.48.06A.07.07,0,0,1,36,33.7a.6.6,0,0,0-.16-.26,1.62,1.62,0,0,0,.59,0c.13,0,.17-.09.24-.38a8,8,0,0,0,.16-1.52H35.67a3.37,3.37,0,0,1-.42,1.3,2.88,2.88,0,0,1-1,1s-.08,0-.11,0a.56.56,0,0,0-.25-.15A2.76,2.76,0,0,0,35,32.67a3.36,3.36,0,0,0,.38-1.16h-.54c-.21,0-.42,0-.64,0,0,0,0,0-.06-.06s0-.18,0-.28l.72,0Z"/><path class="cls-1" d="M38.79,30.9l1,1,1-1,.17.16-1,1,1,1-.17.16-1-1-1,1-.17-.16,1-1-1-1Z"/><path class="cls-1" d="M43.22,31.14s0,0,0,0h-.39a3,3,0,0,0,.52,1,.62.62,0,0,0-.12.19s0,0,0,0,0,0,0,0a4.63,4.63,0,0,1-.37-.86c0,1.4,0,2.55,0,2.62s0,0,0,0h-.22s0,0,0,0,0-1.24.06-2.6A7.27,7.27,0,0,1,42,33s0,0,0,0,0,0,0,0a.3.3,0,0,0-.12-.18,6.74,6.74,0,0,0,.65-1.65H42s0,0,0,0V31s0,0,0,0h.52v-.4a2.6,2.6,0,0,0,0-.55,1.29,1.29,0,0,1,.29,0s0,0,0,0a.24.24,0,0,1,0,.08,1.2,1.2,0,0,0,0,.39v.41h.41s0,0,0,0Zm1,2.45a.34.34,0,0,0-.11.07,3,3,0,0,1-.85.45c-.08,0-.08,0-.13-.06a.76.76,0,0,0-.11-.14,2.37,2.37,0,0,0,.89-.42.63.63,0,0,0,.11-.12l.2.13s0,0,0,.06S44.29,33.58,44.26,33.59Zm1.84-2.2s0,0,0,0H44.72v.39h1s0,0,0,0,0,.13,0,.42v.57c0,.3,0,.39,0,.42s0,0,0,0H43.5s0,0,0,0,0-.12,0-.42v-.57c0-.29,0-.4,0-.42s0,0,0,0h1v-.39h-1.2s0,0,0,0v-.17s0,0,0,0H44v-.45H43.4s0,0,0,0v-.16s0,0,0,0H44v0A2.33,2.33,0,0,0,44,30l.28,0a0,0,0,0,1,.05,0,.14.14,0,0,1,0,.06,1.13,1.13,0,0,0,0,.36v0h.68v0a3.4,3.4,0,0,0,0-.49l.26,0s.06,0,.06,0a.25.25,0,0,1,0,.07,1,1,0,0,0,0,.35v0h.7s0,0,0,0v.16s0,0,0,0h-.7v.45h.87s0,0,0,0ZM44.47,32h-.74v.4h.74Zm0,.6h-.74v.44h.74Zm.47-1.89h-.68v.45h.68ZM45.5,32h-.78v.4h.78Zm0,.6h-.78v.44h.78Zm-.46.78s.05,0,.08,0a2.74,2.74,0,0,0,1,.51.46.46,0,0,0-.11.16s0,.07-.06.07l-.08,0a3.52,3.52,0,0,1-.94-.55s0,0,0-.08Z"/><path class="cls-1" d="M48.14,31.14s0,0,0,0h-.41a3,3,0,0,0,.54,1,.57.57,0,0,0-.12.18s0,0,0,0,0,0,0,0a3.89,3.89,0,0,1-.37-.82c0,1.38,0,2.53,0,2.6s0,0,0,0h-.22s0,0,0,0,0-1.21,0-2.55A5.5,5.5,0,0,1,46.91,33s0,0,0,0,0,0,0,0a.35.35,0,0,0-.11-.18,5.54,5.54,0,0,0,.68-1.65h-.53s0,0,0,0V31s0,0,0,0h.57v-.4a2,2,0,0,0,0-.55,1.17,1.17,0,0,1,.29,0s.06,0,.06,0a.13.13,0,0,1,0,.08,1.4,1.4,0,0,0,0,.39v.41h.41s0,0,0,0Zm2.33,1.11c0,.26,0,.34,0,.37s0,0,0,0H48.7a1.87,1.87,0,0,1-.11.44,2.21,2.21,0,0,1-.47.75s0,0,0,0,0,0-.07,0a.67.67,0,0,0-.16-.12,1.82,1.82,0,0,0,.52-.76,3,3,0,0,0,.14-1c0-.33,0-.48,0-.51s0,0,0,0h1.91s0,0,0,0,0,.11,0,.37Zm.47-1c0,.05,0,.07,0,.07l-.07,0a4,4,0,0,1-1.34-1.09,3.66,3.66,0,0,1-1.19,1.13l-.07,0s0,0-.06-.06a.3.3,0,0,0-.12-.13,2.9,2.9,0,0,0,1.19-1.07.79.79,0,0,0,.11-.23l.26.06s.06,0,.06.05,0,0,0,0a3.41,3.41,0,0,0,1.46,1A.43.43,0,0,0,50.94,31.29Zm-.32,2.22c0,.48,0,.55,0,.57s0,0,0,0H50.4s0,0,0,0v-.15H48.94v.17s0,0,0,0h-.18s0,0,0,0,0-.1,0-.57v-.22c0-.2,0-.28,0-.31s0,0,0,0h1.87s0,0,0,0,0,.11,0,.27Zm-.41-1.4H48.75c0,.11,0,.22,0,.32h1.48Zm0-.5H48.76v.3h1.45Zm.15,1.58H48.94v.52h1.42ZM50,31.09s0,0,0,0H49s0,0,0,0v-.16s0,0,0,0h1s0,0,0,0Z"/><path class="cls-1" d="M54.17,30.91a1.62,1.62,0,0,0,.16-.54,1.66,1.66,0,0,1,.38.19.07.07,0,0,1,0,.13.9.9,0,0,0-.2.29,7.59,7.59,0,0,1-.59,1,4.85,4.85,0,0,1,.72.64s0,.06,0,.09a1.37,1.37,0,0,1-.16.18s-.05,0-.08,0a4.54,4.54,0,0,0-.67-.65,6.26,6.26,0,0,1-1.65,1.54c-.05,0-.1,0-.14,0a.6.6,0,0,0-.26-.14,5.72,5.72,0,0,0,1.79-1.59,6.59,6.59,0,0,0-.93-.57c.07-.08.13-.17.18-.22s0,0,.07,0a9.06,9.06,0,0,1,.87.52A6.91,6.91,0,0,0,54.17,30.91Z"/><path class="cls-1" d="M56.31,30.68s.06,0,.09,0a4.6,4.6,0,0,1,.83.61s0,.05,0,.09a1.56,1.56,0,0,1-.16.2s0,0-.07,0a4.62,4.62,0,0,0-.88-.68Zm.42,2.45a7.46,7.46,0,0,0,1.34-.86A7.27,7.27,0,0,0,59.31,31a1.73,1.73,0,0,0,.08.31c0,.06,0,.09,0,.16a8.74,8.74,0,0,1-2.51,2c-.13.08-.21.15-.26.18a.08.08,0,0,1-.12,0,2.44,2.44,0,0,1-.23-.32A2.26,2.26,0,0,0,56.73,33.13Z"/><path class="cls-1" d="M63.08,31.28H61.41l-.67,0c-.05,0-.06,0-.07-.06a2.81,2.81,0,0,1,0-.3,6.11,6.11,0,0,0,.74,0h2c.06,0,.08,0,.08.07s0,.44,0,.68v1c0,.28,0,.6,0,.79s0,0,0,0a.89.89,0,0,1-.23,0c-.06,0-.07,0-.07-.06v-.2H61.41l-.72,0s0,0,0-.06a2.51,2.51,0,0,1,0-.3c.24,0,.49,0,.79,0h1.67Zm.29-1s0,0,0,0a2.36,2.36,0,0,1,.53.56s0,0,0,.05l-.14.11s0,0-.06,0a2.14,2.14,0,0,0-.53-.59Zm.38-.3s0,0,0,0a2.71,2.71,0,0,1,.53.54s0,0,0,.06l-.13.11s0,0,0,0a2.25,2.25,0,0,0-.54-.58Z"/><path class="cls-1" d="M65,34l4-4.11.17.16-4,4.11Z"/><path class="cls-1" d="M73.66,32.39s0,0,0,0H70.48s0,0,0,0,0-.17,0-.52v-.54c0-.14,0-.29,0-.41-.13.13-.26.27-.42.41l-.06,0s0,0-.06-.06a.58.58,0,0,0-.13-.14,3.24,3.24,0,0,0,.9-.94,1.15,1.15,0,0,0,.12-.28l.27.08a.07.07,0,0,1,0,0s0,0-.05.06l-.13.17-.13.18h1A1.28,1.28,0,0,0,72,30.2a.73.73,0,0,0,.08-.25l.27.09s.05,0,.05.05,0,0-.05.05a.36.36,0,0,0-.08.12,1.3,1.3,0,0,1-.15.23h1.46s0,0,0,0v.16s0,.05,0,.05H72.07v.34h1.3s0,0,0,0v.16s0,0,0,0h-1.3v.34h1.3s0,0,0,0v.16s0,0,0,0h-1.3v.35h1.55s0,0,0,0ZM72.24,33a4.08,4.08,0,0,0,1.75.75.57.57,0,0,0-.12.18c0,.09-.05.09-.14.06A3.79,3.79,0,0,1,72,33.1c0,.63,0,.93,0,1s0,0,0,0h-.22s0,0,0,0,0-.38,0-1a3.93,3.93,0,0,1-1.68.89c-.09,0-.1,0-.14-.06a.57.57,0,0,0-.11-.16A4.11,4.11,0,0,0,71.53,33H70s0,0,0,0v-.19s0,0,0,0h1.77a1.89,1.89,0,0,0,0-.32l.28,0s0,0,0,0a.07.07,0,0,1,0,.06.92.92,0,0,0,0,.19h1.81s0,0,0,0V33s0,0,0,0h-1.6Zm-.42-2.3H70.71v.34h1.11Zm0,.56H70.71v.34h1.11Zm0,.56H70.71v.35h1.11Z"/><path class="cls-1" d="M76.9,32.74a2.78,2.78,0,0,0,1.92,1.1.57.57,0,0,0-.13.19c0,.06,0,.08-.07.08h-.07a2.89,2.89,0,0,1-1.87-1.25,1.55,1.55,0,0,1-.19.36,2.49,2.49,0,0,1-1.5.89h-.06s0,0-.07-.07a.76.76,0,0,0-.13-.17A2.39,2.39,0,0,0,76.29,33a1,1,0,0,0,.14-.29H74.8s0,0,0,0v-.19s0,0,0,0h.55v-.64c0-.26,0-.37,0-.39s0,0,0,0h1.21a2.48,2.48,0,0,0,0-.49l.29,0s.06,0,.06,0a.24.24,0,0,1,0,.08,1.87,1.87,0,0,0,0,.34H78.1s0,0,0,0,0,.13,0,.39v.64h.57s0,0,0,0v.19s0,0,0,0H76.9Zm1.85-2.05s0,0,0,0H77.48c0,.26,0,.35,0,.38s0,0,0,0h-.2s0,0,0,0,0-.12,0-.38h-1c0,.25,0,.35,0,.38s0,0,0,0H76s0,0,0,0,0-.13,0-.38H74.77s0,0,0,0v-.2s0,0,0,0H76A2.28,2.28,0,0,0,76,30l.29,0s0,0,0,0,0,0,0,.06a1.09,1.09,0,0,0,0,.36h1a2.28,2.28,0,0,0,0-.49,1.17,1.17,0,0,1,.29,0s0,0,0,0l0,.06a.94.94,0,0,0,0,.33v0h1.24s0,0,0,0Zm-3.13,1v.82h.89a4.85,4.85,0,0,0,.08-.82Zm2.23,0h-1a5.12,5.12,0,0,1-.07.82h1.06Z"/><path class="cls-1" d="M80.89,30.77a.15.15,0,0,0,.08,0h0s.06,0,.12.08.08.09.08.11a.07.07,0,0,1,0,.06.27.27,0,0,0-.1.11,3.62,3.62,0,0,1-.44.74,2.68,2.68,0,0,0,.7.57,1,1,0,0,0-.12.17s0,.05-.06.05a.08.08,0,0,1-.06,0,3.59,3.59,0,0,1-.52-.51v1.44c0,.37,0,.56,0,.58s0,0,0,0h-.21s0,0,0,0,0-.21,0-.58V32.24a4.45,4.45,0,0,1-.61.54s0,0-.07,0,0,0,0-.06a.56.56,0,0,0-.11-.17A3.81,3.81,0,0,0,80.82,31H79.67s0,0,0,0V30.8s0,0,0,0h.63V30.5a3.27,3.27,0,0,0,0-.52,1.45,1.45,0,0,1,.3,0s.06,0,.06,0a.24.24,0,0,1,0,.09,1.09,1.09,0,0,0,0,.36v.28Zm2.8,3.15s0,0,0,0H81.07s0,0,0,0v-.2s0,0,0,0h1.11V31.78h-.89s0,0,0,0v-.2s0,0,0,0h.89v-.9a2.62,2.62,0,0,0,0-.63l.31,0s.06,0,.06,0a.31.31,0,0,1,0,.08,1.91,1.91,0,0,0,0,.48v.91h1s0,0,0,0v.2s0,0,0,0h-1v1.91h1.19s0,0,0,0Z"/></g></g></svg>